<?xml version="1.0" encoding="UTF-8"?>
<svg width="331px" height="88px" viewBox="0 0 331 88" version="1.1" xmlns="http://www.w3.org/2000/svg" xmlns:xlink="http://www.w3.org/1999/xlink">
    <title>848D1785-E717-4C1B-909F-BFA5279906F8</title>
    <defs>
        <polygon id="path-1" points="0 0.274129747 55 0.274129747 55 43.0383703 0 43.0383703"></polygon>
    </defs>
    <g id="Page-1" stroke="none" stroke-width="1" fill="none" fill-rule="evenodd">
        <g id="Counselling" transform="translate(-300.000000, -45.000000)">
            <g id="logo" transform="translate(300.000000, 45.000000)">
                <g id="Group">
                    <path d="M34.7897389,61.1168705 C35.7378648,61.1168705 36.6273955,61.3727388 37.3965735,61.8205719 C37.4937981,61.8771704 37.5992694,61.9288776 37.7116234,61.9761383 C40.0577869,62.9632767 42.625,61.1351015 42.625,58.5367169 L42.625,45.7576577 L30.1511086,45.7576577 C27.6147743,45.7576577 25.8302564,43.1275754 26.7937596,40.7240141 C26.8399537,40.6088479 26.8904262,40.5007963 26.9456731,40.4012567 C27.3828117,39.6131975 27.6325698,38.7019684 27.6325698,37.7306471 C27.6325698,34.6528588 25.1275482,32.1744681 22.0923178,32.3184734 C19.3456608,32.4486944 17.1337391,34.7601482 17.0570384,37.5759065 C17.0297559,38.5774645 17.268167,39.519502 17.7051197,40.3339864 C17.7594985,40.4354317 17.8094129,40.5453255 17.855235,40.6623338 C18.8110495,43.1052155 16.9979471,45.7576577 14.4289979,45.7576577 L2.0625,45.7576577 L2.0625,74.875636 C2.0625,81.7443788 7.49771478,87.3125 14.2023678,87.3125 L42.625,87.3125 L42.625,74.5760008 C42.625,71.9647847 40.0496022,70.1252389 37.6886193,71.1091377 C37.5757694,71.1561443 37.469864,71.2075339 37.3722054,71.2636242 C36.531163,71.7473474 35.548066,72.0020723 34.5026535,71.9455374 C31.8095693,71.7996264 29.6341689,69.557412 29.5069956,66.797617 C29.363639,63.6858442 31.783837,61.1168705 34.7897389,61.1168705" id="Fill-150" fill="#4EA4F7"></path>
                    <g id="Group-154" transform="translate(33.000000, 44.687500)">
                        <mask id="mask-2" fill="white">
                            <use xlink:href="#path-1"></use>
                        </mask>
                        <g id="Clip-153"></g>
                        <path d="M28.893023,8.9853879 C28.9376972,8.01783633 29.2309224,7.12192943 29.7070931,6.35784622 C29.7673252,6.26124309 29.8231211,6.15602487 29.8748557,6.04364851 C30.955159,3.69527403 29.2796579,0.990259806 26.726668,0.869268349 L14.1707189,0.274129747 L13.5837686,13.0038879 C13.4643667,15.5922816 10.7962861,17.2909129 8.47997574,16.1956552 C8.36907126,16.1432044 8.26528966,16.0866995 8.17000553,16.0256337 C7.41635492,15.5428714 6.532743,15.2455238 5.57840214,15.2002946 C2.55436501,15.0570052 0.00131264953,17.4979287 0,20.6021513 C-0.00124908775,23.4111802 2.16573072,25.7760881 4.92878306,25.985511 C5.91155295,26.0600063 6.84827406,25.8605921 7.66909217,25.4525785 C7.77137421,25.4017747 7.88171636,25.3559753 7.9988065,25.3146735 C10.444016,24.453037 12.9647654,26.4267814 12.8439264,29.0484952 L12.2619747,41.6686009 L40.8715191,43.0245921 C47.6203847,43.3444276 53.3470546,38.057101 53.6625232,31.2148758 L55,2.20923289 L42.4858509,1.61618472 C39.9202398,1.4945598 37.9916265,4.03715407 38.8471843,6.49239378 C38.8881096,6.60971115 38.9335961,6.72018712 38.984206,6.82242807 C39.4198263,7.70325854 39.6238905,8.71838319 39.5190468,9.78260124 C39.2490022,12.5241029 36.9436261,14.6398064 34.2260602,14.64101 C31.16191,14.6424036 28.7515651,12.0529331 28.893023,8.9853879" id="Fill-152" fill="#F2E33E" mask="url(#mask-2)"></path>
                    </g>
                    <path d="M27.0545889,33.4991289 C27.103046,34.4477191 26.8947059,35.3502805 26.4896983,36.1419008 C26.4385282,36.2419093 26.3925949,36.3500552 26.3514569,36.4647233 C25.4921014,38.8606418 27.4368822,41.3394867 30.0145702,41.2118361 L42.6916413,40.5843291 L42.0541913,28.1037 C41.9245939,25.5660303 44.4424677,23.6513329 46.8761095,24.4973678 C46.9926462,24.5378681 47.1024317,24.5830894 47.204078,24.6334663 C48.008099,25.0321338 48.9248711,25.2373066 49.8884598,25.1896007 C52.9416325,25.0384077 55.2723031,22.4103576 54.9743048,19.3805962 C54.7046994,16.6388718 52.2986933,14.5392518 49.5014974,14.6008099 C48.5065505,14.6226751 47.584226,14.907482 46.7985656,15.3846655 C46.7007051,15.4441116 46.5942005,15.4993958 46.4805031,15.550953 C44.1059815,16.627318 41.382039,14.9435099 41.2508012,12.3731044 L40.6187774,0 L11.7331383,1.42993556 C4.91930721,1.76729351 -0.32673638,7.47883629 0.0158701111,14.1871721 L1.46838282,42.625 L14.1032433,41.999543 C16.6936134,41.8712712 18.3868971,39.2041494 17.2902408,36.8902254 C17.2378088,36.779657 17.1814648,36.6761699 17.1207673,36.581255 C16.5979612,35.7635455 16.2949784,34.7924068 16.2977546,33.7436839 C16.3048213,31.0419008 18.4179399,28.7551841 21.1492013,28.4924909 C24.2288109,28.1961924 26.9009523,30.4916054 27.0545889,33.4991289" id="Fill-155" fill="#C52900"></path>
                    <path d="M50.6034265,26.179401 C50.5062639,26.1228026 50.4007306,26.0710319 50.2884386,26.0238348 C47.9422131,25.0366975 45.375,26.8648072 45.375,29.4632526 L45.375,42.2422982 L57.8488914,42.2422982 C60.3852257,42.2422982 62.1697436,44.8723777 61.2062404,47.276 C61.1601083,47.391039 61.1095738,47.4990905 61.0543269,47.5986935 C60.6171883,48.3866883 60.3674922,49.29798 60.3674922,50.2693003 C60.3674922,53.3470853 62.8723898,55.8254734 65.9076822,55.6815317 C68.6543392,55.5511838 70.8662609,53.2397325 70.9429616,50.4239772 C70.9702441,49.4224838 70.731833,48.4805108 70.2948803,47.6659637 C70.2405015,47.564582 70.1905871,47.4546248 70.144765,47.3376167 C69.1889505,44.8947376 71.0019909,42.2422982 73.5710021,42.2422982 L85.9375,42.2422982 L85.9375,13.1243508 C85.9375,6.25567882 80.5022852,0.6875 73.7975701,0.6875 L45.375,0.6875 L45.375,13.4239857 C45.375,16.035199 47.9503978,17.8747428 50.3113807,16.8908451 C50.4241686,16.8438386 50.530136,16.792449 50.6277946,16.7363587 C51.468775,16.2526996 52.451934,15.9978479 53.4973465,16.0545098 C56.1904307,16.2004207 58.3658311,18.4425691 58.4930044,21.2023612 C58.6364231,24.3141307 56.216163,26.8831017 53.2102611,26.8831017 C52.2621352,26.8831017 51.3726045,26.6272336 50.6034265,26.179401 Z" id="Fill-157" fill="#2C5CA0"></path>
                </g>
                <path d="M104.262573,54.596875 C107.279261,54.596875 109.579486,53.7450851 111.163247,52.0415053 C112.747008,50.3379255 113.538889,47.8948797 113.538889,44.712368 L113.538889,44.712368 L113.538889,14.721875 L107.543221,14.721875 L107.543221,45.1616637 C107.543221,46.5095511 107.269834,47.4830252 106.723059,48.0820863 C106.176285,48.6811473 105.393831,48.9806778 104.375699,48.9806778 C103.357567,48.9806778 102.575113,48.6811473 102.028339,48.0820863 C101.481564,47.4830252 101.208176,46.5095511 101.208176,45.1616637 L101.208176,45.1616637 L101.208176,14.721875 L94.9862573,14.721875 L94.9862573,44.712368 C94.9862573,47.8948797 95.7781379,50.3379255 97.3618992,52.0415053 C98.9456604,53.7450851 101.245885,54.596875 104.262573,54.596875 Z M124.501174,54.596875 L124.501174,25.488125 L124.612709,25.488125 L131.974011,54.596875 L138.275731,54.596875 L138.275731,14.721875 L132.810522,14.721875 L132.810522,38.5899107 L132.698987,38.5899107 L126.731871,14.721875 L119.035965,14.721875 L119.035965,54.596875 L124.501174,54.596875 Z M149.957018,54.596875 L149.957018,14.721875 L143.772807,14.721875 L143.772807,54.596875 L149.957018,54.596875 Z M175.380994,58.034375 L175.380994,52.3569556 L174.442608,52.3569556 C173.817018,52.3569556 173.338625,52.3001815 173.00743,52.1866331 C172.676235,52.0730847 172.400239,51.8270632 172.179442,51.4485685 C173.320225,49.7453427 173.890617,47.5689987 173.890617,44.9195363 L173.890617,44.9195363 L173.890617,24.0266331 C173.890617,20.8472782 173.099428,18.3870632 171.517052,16.6459879 C169.934676,14.9049126 167.65311,14.034375 164.672355,14.034375 C161.6916,14.034375 159.410034,14.9049126 157.827658,16.6459879 C156.245282,18.3870632 155.454094,20.8472782 155.454094,24.0266331 L155.454094,24.0266331 L155.454094,44.9195363 C155.454094,48.0988911 156.245282,50.5591062 157.827658,52.3001815 C159.410034,54.0412567 161.6916,54.9117944 164.672355,54.9117944 C166.217932,54.9117944 167.561112,54.6846976 168.701895,54.230504 C169.327485,56.766418 171.02026,58.034375 173.780218,58.034375 L173.780218,58.034375 L175.380994,58.034375 Z M164.730409,49.096875 C162.669006,49.096875 161.638304,47.7893029 161.638304,45.1741587 L161.638304,45.1741587 L161.638304,23.4570913 C161.638304,20.8419471 162.669006,19.534375 164.730409,19.534375 C166.791813,19.534375 167.822515,20.8419471 167.822515,23.4570913 L167.822515,23.4570913 L167.822515,45.1741587 C167.822515,47.7893029 166.791813,49.096875 164.730409,49.096875 Z M188.092982,54.596875 C191.109671,54.596875 193.409895,53.7450851 194.993656,52.0415053 C196.577418,50.3379255 197.369298,47.8948797 197.369298,44.712368 L197.369298,44.712368 L197.369298,14.721875 L191.373631,14.721875 L191.373631,45.1616637 C191.373631,46.5095511 191.100243,47.4830252 190.553469,48.0820863 C190.006694,48.6811473 189.22424,48.9806778 188.206108,48.9806778 C187.187976,48.9806778 186.405523,48.6811473 185.858748,48.0820863 C185.311973,47.4830252 185.038586,46.5095511 185.038586,45.1616637 L185.038586,45.1616637 L185.038586,14.721875 L178.816667,14.721875 L178.816667,44.712368 C178.816667,47.8948797 179.608547,50.3379255 181.192309,52.0415053 C182.77607,53.7450851 185.076294,54.596875 188.092982,54.596875 Z M220.044737,54.596875 L220.044737,48.9004464 L209.165107,48.9004464 L209.165107,36.653125 L217.81155,36.653125 L217.81155,30.9566964 L209.165107,30.9566964 L209.165107,20.4183036 L220.044737,20.4183036 L220.044737,14.721875 L202.866374,14.721875 L202.866374,54.596875 L220.044737,54.596875 Z M240.734652,54.596875 L240.734652,38.3620536 L243.693967,38.3620536 C246.805043,38.3620536 249.138349,37.5265774 250.693887,35.855625 C252.249424,34.1846726 253.027193,31.7352083 253.027193,28.5072321 L253.027193,28.5072321 L253.027193,24.5766964 C253.027193,21.3487202 252.249424,18.899256 250.693887,17.2283036 C249.138349,15.5573512 246.805043,14.721875 243.693967,14.721875 L243.693967,14.721875 L234.474561,14.721875 L234.474561,54.596875 L240.734652,54.596875 Z M243.355451,32.596875 L240.658772,32.596875 L240.658772,20.221875 L243.355451,20.221875 C244.288916,20.221875 244.989016,20.5096657 245.455749,21.0852471 C245.922482,21.6608285 246.155848,22.6393169 246.155848,24.0207122 L246.155848,24.0207122 L246.155848,28.7980378 C246.155848,30.1794331 245.922482,31.1579215 245.455749,31.7335029 C244.989016,32.3090843 244.288916,32.596875 243.355451,32.596875 L243.355451,32.596875 Z M263.334211,54.596875 L263.334211,14.721875 L257.15,14.721875 L257.15,54.596875 L263.334211,54.596875 Z M286.009649,54.596875 L286.009649,48.9004464 L275.130019,48.9004464 L275.130019,36.653125 L283.776462,36.653125 L283.776462,30.9566964 L275.130019,30.9566964 L275.130019,20.4183036 L286.009649,20.4183036 L286.009649,14.721875 L268.831287,14.721875 L268.831287,54.596875 L286.009649,54.596875 Z M299.408772,54.596875 C302.424529,54.596875 304.724521,53.7518229 306.308748,52.0617187 C307.892974,50.3716146 308.685088,47.9866898 308.685088,44.9069444 L308.685088,44.9069444 L308.685088,39.3296007 L302.729922,39.3296007 L302.729922,45.3576389 C302.729922,47.7613426 301.680133,48.9631944 299.580556,48.9631944 C297.480978,48.9631944 296.431189,47.7613426 296.431189,45.3576389 L296.431189,45.3576389 L296.431189,23.3299479 C296.431189,20.8886863 297.480978,19.6680556 299.580556,19.6680556 C301.680133,19.6680556 302.729922,20.8886863 302.729922,23.3299479 L302.729922,23.3299479 L302.729922,27.8932292 L308.685088,27.8932292 L308.685088,23.7243056 C308.685088,20.6445602 307.892974,18.2596354 306.308748,16.5695312 C304.724521,14.8794271 302.424529,14.034375 299.408772,14.034375 C296.393015,14.034375 294.093023,14.8794271 292.508796,16.5695312 C290.92457,18.2596354 290.132456,20.6445602 290.132456,23.7243056 L290.132456,23.7243056 L290.132456,44.9069444 C290.132456,47.9866898 290.92457,50.3716146 292.508796,52.0617187 C294.093023,53.7518229 296.393015,54.596875 299.408772,54.596875 Z M330.673392,54.596875 L330.673392,48.9004464 L319.793762,48.9004464 L319.793762,36.653125 L328.440205,36.653125 L328.440205,30.9566964 L319.793762,30.9566964 L319.793762,20.4183036 L330.673392,20.4183036 L330.673392,14.721875 L313.495029,14.721875 L313.495029,54.596875 L330.673392,54.596875 Z" id="UNIQUEPIECE" fill="#000000" fill-rule="nonzero"></path>
                <path d="M99.2996726,74.035 C99.8150334,74.035 100.292403,73.9481554 100.731781,73.7744663 C101.171159,73.6007772 101.542813,73.3500749 101.846744,73.0223596 L101.846744,73.0223596 L101.380937,72.5602809 C100.845755,73.1108427 100.161911,73.3861236 99.329405,73.3861236 C98.7810082,73.3861236 98.2821654,73.2615918 97.8328766,73.0125281 C97.3835877,72.7634644 97.0317548,72.4226404 96.777378,71.9900562 C96.5230012,71.5574719 96.3958128,71.0724532 96.3958128,70.535 C96.3958128,69.9975468 96.5230012,69.5125281 96.777378,69.0799438 C97.0317548,68.6473596 97.3835877,68.3065356 97.8328766,68.0574719 C98.2821654,67.8084082 98.7810082,67.6838764 99.329405,67.6838764 C100.155304,67.6838764 100.839148,67.9558801 101.380937,68.4998876 L101.380937,68.4998876 L101.846744,68.037809 C101.542813,67.7100936 101.172811,67.46103 100.736736,67.290618 C100.300662,67.120206 99.8249442,67.035 99.3095834,67.035 C98.6224357,67.035 98.0013599,67.1857491 97.446356,67.4872472 C96.891352,67.7887453 96.4569293,68.2065824 96.1430878,68.7407584 C95.8292463,69.2749345 95.6723256,69.873015 95.6723256,70.535 C95.6723256,71.196985 95.8292463,71.7950655 96.1430878,72.3292416 C96.4569293,72.8634176 96.8897003,73.2812547 97.4414006,73.5827528 C97.9931009,73.8842509 98.6125249,74.035 99.2996726,74.035 Z M105.625134,74.035 C106.337004,74.035 106.978714,73.8842509 107.550264,73.5827528 C108.121814,73.2812547 108.571867,72.8634176 108.900422,72.3292416 C109.228978,71.7950655 109.393256,71.196985 109.393256,70.535 C109.393256,69.873015 109.228978,69.2749345 108.900422,68.7407584 C108.571867,68.2065824 108.121814,67.7887453 107.550264,67.4872472 C106.978714,67.1857491 106.337004,67.035 105.625134,67.035 C104.913263,67.035 104.268131,67.1873876 103.689736,67.4921629 C103.111341,67.7969382 102.659577,68.2147753 102.334444,68.7456742 C102.009311,69.276573 101.846744,69.873015 101.846744,70.535 C101.846744,71.196985 102.009311,71.793427 102.334444,72.3243258 C102.659577,72.8552247 103.111341,73.2730618 103.689736,73.5778371 C104.268131,73.8826124 104.913263,74.035 105.625134,74.035 Z M105.630501,73.335 C105.049461,73.335 104.522676,73.2143103 104.050144,72.972931 C103.577612,72.7315517 103.206586,72.3968391 102.937068,71.9687931 C102.66755,71.5407471 102.532791,71.0628161 102.532791,70.535 C102.532791,70.0071839 102.66755,69.5292529 102.937068,69.1012069 C103.206586,68.6731609 103.577612,68.3384483 104.050144,68.097069 C104.522676,67.8556897 105.049461,67.735 105.630501,67.735 C106.21154,67.735 106.736576,67.8556897 107.205607,68.097069 C107.674639,68.3384483 108.042164,68.6731609 108.308182,69.1012069 C108.5742,69.5292529 108.707209,70.0071839 108.707209,70.535 C108.707209,71.0628161 108.5742,71.5407471 108.308182,71.9687931 C108.042164,72.3968391 107.674639,72.7315517 107.205607,72.972931 C106.736576,73.2143103 106.21154,73.335 105.630501,73.335 Z M114.200354,74.035 C115.065767,74.035 115.738689,73.7772096 116.21912,73.2616289 C116.699552,72.7460482 116.939767,71.9958121 116.939767,71.0109207 L116.939767,71.0109207 L116.939767,67.035 L116.252528,67.035 L116.252528,70.9811756 C116.252528,71.7875968 116.077536,72.3891076 115.727553,72.7857082 C115.37757,73.1823088 114.868504,73.3806091 114.200354,73.3806091 C113.538568,73.3806091 113.032683,73.1823088 112.6827,72.7857082 C112.332717,72.3891076 112.157725,71.7875968 112.157725,70.9811756 L112.157725,70.9811756 L112.157725,67.035 L111.451395,67.035 L111.451395,71.0109207 C111.451395,71.9958121 111.693202,72.7460482 112.176815,73.2616289 C112.660428,73.7772096 113.334941,74.035 114.200354,74.035 Z M120.378209,74.035 L120.378209,68.355 L124.600034,74.035 L125.172326,74.035 L125.172326,67.035 L124.487452,67.035 L124.487452,72.715 L120.256245,67.035 L119.683953,67.035 L119.683953,74.035 L120.378209,74.035 Z M130.313066,74.035 C130.841537,74.035 131.28705,73.9514326 131.649605,73.7842978 C132.012161,73.6171629 132.281005,73.3910393 132.456138,73.105927 C132.631271,72.8208146 132.718837,72.5045693 132.718837,72.157191 C132.718837,71.7377154 132.617445,71.4050843 132.414659,71.1592978 C132.211874,70.9135112 131.964537,70.7299906 131.672649,70.608736 C131.380761,70.4874813 130.998234,70.364588 130.525069,70.2400562 C130.125643,70.1351873 129.807639,70.0385112 129.571056,69.9500281 C129.334473,69.8615449 129.137832,69.733736 128.981135,69.5666011 C128.824437,69.3994663 128.746088,69.1782584 128.746088,68.9029775 C128.746088,68.5359363 128.88896,68.2360768 129.174702,68.0033989 C129.460445,67.770721 129.885987,67.654382 130.451328,67.654382 C130.746289,67.654382 131.047394,67.7019007 131.354645,67.7969382 C131.661895,67.8919757 131.950711,68.0345318 132.221091,68.2246067 L132.221091,68.2246067 L132.451529,67.6445506 C132.193439,67.4544757 131.887725,67.3053652 131.534386,67.1972191 C131.181048,67.089073 130.820029,67.035 130.451328,67.035 C129.922858,67.035 129.480417,67.120206 129.124006,67.290618 C128.767596,67.46103 128.50336,67.6887921 128.3313,67.9739045 C128.15924,68.2590169 128.073209,68.5752622 128.073209,68.9226404 C128.073209,69.3486704 128.176138,69.6862172 128.381996,69.9352809 C128.587854,70.1843446 128.835191,70.3695037 129.124006,70.4907584 C129.412822,70.6120131 129.799957,70.7381835 130.285413,70.8692697 C130.690984,70.9741386 131.007452,71.0708146 131.234817,71.1592978 C131.462183,71.2477809 131.654214,71.3739513 131.810912,71.537809 C131.96761,71.7016667 132.045959,71.921236 132.045959,72.1965169 C132.045959,72.5570037 131.901551,72.850309 131.612735,73.0764326 C131.32392,73.3025562 130.890697,73.415618 130.313066,73.415618 C129.90135,73.415618 129.501924,73.3386049 129.114789,73.1845787 C128.727653,73.0305524 128.41733,72.8290075 128.18382,72.5799438 L128.18382,72.5799438 L127.916512,73.1403371 C128.156167,73.4090637 128.495679,73.6253558 128.935047,73.7892135 C129.374415,73.9530712 129.833755,74.035 130.313066,74.035 Z M139.579302,74.035 L139.579302,73.395 L135.4949,73.395 L135.4949,70.795 L139.006904,70.795 L139.006904,70.165 L135.4949,70.165 L135.4949,67.675 L139.433777,67.675 L139.433777,67.035 L134.776977,67.035 L134.776977,74.035 L139.579302,74.035 Z M146.439767,74.035 L146.439767,73.395 L142.400043,73.395 L142.400043,67.035 L141.637442,67.035 L141.637442,74.035 L146.439767,74.035 Z M152.614186,74.035 L152.614186,73.395 L148.574462,73.395 L148.574462,67.035 L147.81186,67.035 L147.81186,74.035 L152.614186,74.035 Z M154.493953,74.035 L154.493953,67.035 L153.478605,67.035 L153.478605,74.035 L154.493953,74.035 Z M158.110767,74.035 L158.110767,68.355 L162.332592,74.035 L162.904884,74.035 L162.904884,67.035 L162.22001,67.035 L162.22001,72.715 L157.988803,67.035 L157.416512,67.035 L157.416512,74.035 L158.110767,74.035 Z M169.265515,74.035 C169.749014,74.035 170.209646,73.9596255 170.647409,73.8088764 C171.085172,73.6581273 171.464131,73.4418352 171.784286,73.16 L171.784286,73.16 L171.784286,70.535 L171.088439,70.535 L171.088439,72.8552247 C170.598405,73.2091573 170.000565,73.3861236 169.294917,73.3861236 C168.739546,73.3861236 168.239712,73.2615918 167.795415,73.0125281 C167.351118,72.7634644 167.001561,72.4226404 166.746744,71.9900562 C166.491927,71.5574719 166.364518,71.0724532 166.364518,70.535 C166.364518,69.9975468 166.491927,69.5108895 166.746744,69.0750281 C167.001561,68.6391667 167.352752,68.2983427 167.800316,68.0525562 C168.247879,67.8067697 168.749347,67.6838764 169.304718,67.6838764 C170.141041,67.6838764 170.830354,67.952603 171.372658,68.4900562 L171.372658,68.4900562 L171.823488,68.0279775 C171.522935,67.7002622 171.153776,67.4528371 170.716013,67.2857022 C170.27825,67.1185674 169.798018,67.035 169.275316,67.035 C168.582735,67.035 167.962027,67.1857491 167.413189,67.4872472 C166.864352,67.7887453 166.433123,68.2065824 166.119502,68.7407584 C165.80588,69.2749345 165.64907,69.873015 165.64907,70.535 C165.64907,71.196985 165.80588,71.7950655 166.119502,72.3292416 C166.433123,72.8634176 166.864352,73.2812547 167.413189,73.5827528 C167.962027,73.8842509 168.579468,74.035 169.265515,74.035 Z M176.625814,72.635 C176.814858,72.635 176.97646,72.5313816 177.11062,72.3241447 C177.24478,72.1169079 177.31186,71.8659211 177.31186,71.5711842 C177.31186,71.2764474 177.24478,71.0300658 177.11062,70.8320395 C176.97646,70.6340132 176.814858,70.535 176.625814,70.535 C176.43677,70.535 176.275168,70.6340132 176.141008,70.8320395 C176.006848,71.0300658 175.939767,71.2764474 175.939767,71.5711842 C175.939767,71.8751316 176.006848,72.1284211 176.141008,72.3310526 C176.275168,72.5336842 176.43677,72.635 176.625814,72.635 Z M185.741533,74.035 C186.256894,74.035 186.734263,73.9481554 187.173641,73.7744663 C187.61302,73.6007772 187.984674,73.3500749 188.288605,73.0223596 L188.288605,73.0223596 L187.822798,72.5602809 C187.287615,73.1108427 186.603771,73.3861236 185.771265,73.3861236 C185.222869,73.3861236 184.724026,73.2615918 184.274737,73.0125281 C183.825448,72.7634644 183.473615,72.4226404 183.219238,71.9900562 C182.964862,71.5574719 182.837673,71.0724532 182.837673,70.535 C182.837673,69.9975468 182.964862,69.5125281 183.219238,69.0799438 C183.473615,68.6473596 183.825448,68.3065356 184.274737,68.0574719 C184.724026,67.8084082 185.222869,67.6838764 185.771265,67.6838764 C186.597164,67.6838764 187.281008,67.9558801 187.822798,68.4998876 L187.822798,68.4998876 L188.288605,68.037809 C187.984674,67.7100936 187.614671,67.46103 187.178597,67.290618 C186.742522,67.120206 186.266805,67.035 185.751444,67.035 C185.064296,67.035 184.44322,67.1857491 183.888216,67.4872472 C183.333213,67.7887453 182.89879,68.2065824 182.584948,68.7407584 C182.271107,69.2749345 182.114186,69.873015 182.114186,70.535 C182.114186,71.196985 182.271107,71.7950655 182.584948,72.3292416 C182.89879,72.8634176 183.331561,73.2812547 183.883261,73.5827528 C184.434961,73.8842509 185.054385,74.035 185.741533,74.035 Z M192.753041,74.035 C193.464911,74.035 194.106621,73.8842509 194.678171,73.5827528 C195.249721,73.2812547 195.699774,72.8634176 196.028329,72.3292416 C196.356885,71.7950655 196.521163,71.196985 196.521163,70.535 C196.521163,69.873015 196.356885,69.2749345 196.028329,68.7407584 C195.699774,68.2065824 195.249721,67.7887453 194.678171,67.4872472 C194.106621,67.1857491 193.464911,67.035 192.753041,67.035 C192.04117,67.035 191.396038,67.1873876 190.817643,67.4921629 C190.239248,67.7969382 189.787484,68.2147753 189.462351,68.7456742 C189.137218,69.276573 188.974651,69.873015 188.974651,70.535 C188.974651,71.196985 189.137218,71.793427 189.462351,72.3243258 C189.787484,72.8552247 190.239248,73.2730618 190.817643,73.5778371 C191.396038,73.8826124 192.04117,74.035 192.753041,74.035 Z M192.758408,73.335 C192.177368,73.335 191.650583,73.2143103 191.178051,72.972931 C190.705519,72.7315517 190.334493,72.3968391 190.064975,71.9687931 C189.795457,71.5407471 189.660698,71.0628161 189.660698,70.535 C189.660698,70.0071839 189.795457,69.5292529 190.064975,69.1012069 C190.334493,68.6731609 190.705519,68.3384483 191.178051,68.097069 C191.650583,67.8556897 192.177368,67.735 192.758408,67.735 C193.339447,67.735 193.864483,67.8556897 194.333514,68.097069 C194.802546,68.3384483 195.170071,68.6731609 195.436089,69.1012069 C195.702107,69.5292529 195.835116,70.0071839 195.835116,70.535 C195.835116,71.0628161 195.702107,71.5407471 195.436089,71.9687931 C195.170071,72.3968391 194.802546,72.7315517 194.333514,72.972931 C193.864483,73.2143103 193.339447,73.335 192.758408,73.335 Z M199.316307,74.035 L199.316307,68.465 L202.170902,73.145 L202.534214,73.145 L205.388809,68.435 L205.388809,74.035 L206.125814,74.035 L206.125814,67.035 L205.492613,67.035 L202.368129,72.225 L199.212503,67.035 L198.579302,67.035 L198.579302,74.035 L199.316307,74.035 Z M209.607005,74.035 L209.607005,68.465 L212.4616,73.145 L212.824912,73.145 L215.679507,68.435 L215.679507,74.035 L216.416512,74.035 L216.416512,67.035 L215.783311,67.035 L212.658826,72.225 L209.503201,67.035 L208.87,67.035 L208.87,74.035 L209.607005,74.035 Z M221.22361,74.035 C222.089023,74.035 222.761945,73.7772096 223.242376,73.2616289 C223.722808,72.7460482 223.963023,71.9958121 223.963023,71.0109207 L223.963023,71.0109207 L223.963023,67.035 L223.275784,67.035 L223.275784,70.9811756 C223.275784,71.7875968 223.100792,72.3891076 222.750809,72.7857082 C222.400826,73.1823088 221.891759,73.3806091 221.22361,73.3806091 C220.561823,73.3806091 220.055939,73.1823088 219.705956,72.7857082 C219.355972,72.3891076 219.180981,71.7875968 219.180981,70.9811756 L219.180981,70.9811756 L219.180981,67.035 L218.474651,67.035 L218.474651,71.0109207 C218.474651,71.9958121 218.716458,72.7460482 219.200071,73.2616289 C219.683684,73.7772096 220.358197,74.035 221.22361,74.035 Z M227.401465,74.035 L227.401465,68.355 L231.62329,74.035 L232.195581,74.035 L232.195581,67.035 L231.510708,67.035 L231.510708,72.715 L227.279501,67.035 L226.707209,67.035 L226.707209,74.035 L227.401465,74.035 Z M236.133488,74.035 L236.133488,67.035 L235.11814,67.035 L235.11814,74.035 L236.133488,74.035 Z M240.78692,74.035 L240.78692,67.675 L243.172326,67.675 L243.172326,67.035 L237.683953,67.035 L237.683953,67.675 L240.069359,67.675 L240.069359,74.035 L240.78692,74.035 Z M246.615564,74.035 L246.615564,71.615 L249.346744,67.035 L248.624932,67.035 L246.28392,70.965 L243.942909,67.035 L243.172326,67.035 L245.903506,71.615 L245.903506,74.035 L246.615564,74.035 Z M254.14907,72.635 C254.338114,72.635 254.499716,72.5313816 254.633876,72.3241447 C254.768036,72.1169079 254.835116,71.8659211 254.835116,71.5711842 C254.835116,71.2764474 254.768036,71.0300658 254.633876,70.8320395 C254.499716,70.6340132 254.338114,70.535 254.14907,70.535 C253.960026,70.535 253.798424,70.6340132 253.664264,70.8320395 C253.530103,71.0300658 253.463023,71.2764474 253.463023,71.5711842 C253.463023,71.8751316 253.530103,72.1284211 253.664264,72.3310526 C253.798424,72.5336842 253.960026,72.635 254.14907,72.635 Z M263.264789,74.035 C263.78015,74.035 264.257519,73.9481554 264.696897,73.7744663 C265.136275,73.6007772 265.50793,73.3500749 265.81186,73.0223596 L265.81186,73.0223596 L265.346054,72.5602809 C264.810871,73.1108427 264.127027,73.3861236 263.294521,73.3861236 C262.746125,73.3861236 262.247282,73.2615918 261.797993,73.0125281 C261.348704,72.7634644 260.996871,72.4226404 260.742494,71.9900562 C260.488118,71.5574719 260.360929,71.0724532 260.360929,70.535 C260.360929,69.9975468 260.488118,69.5125281 260.742494,69.0799438 C260.996871,68.6473596 261.348704,68.3065356 261.797993,68.0574719 C262.247282,67.8084082 262.746125,67.6838764 263.294521,67.6838764 C264.12042,67.6838764 264.804264,67.9558801 265.346054,68.4998876 L265.346054,68.4998876 L265.81186,68.037809 C265.50793,67.7100936 265.137927,67.46103 264.701853,67.290618 C264.265778,67.120206 263.79006,67.035 263.2747,67.035 C262.587552,67.035 261.966476,67.1857491 261.411472,67.4872472 C260.856468,67.7887453 260.422046,68.2065824 260.108204,68.7407584 C259.794363,69.2749345 259.637442,69.873015 259.637442,70.535 C259.637442,71.196985 259.794363,71.7950655 260.108204,72.3292416 C260.422046,72.8634176 260.854817,73.2812547 261.406517,73.5827528 C261.958217,73.8842509 262.577641,74.035 263.264789,74.035 Z M270.276296,74.035 C270.988167,74.035 271.629877,73.8842509 272.201427,73.5827528 C272.772977,73.2812547 273.22303,72.8634176 273.551585,72.3292416 C273.880141,71.7950655 274.044419,71.196985 274.044419,70.535 C274.044419,69.873015 273.880141,69.2749345 273.551585,68.7407584 C273.22303,68.2065824 272.772977,67.7887453 272.201427,67.4872472 C271.629877,67.1857491 270.988167,67.035 270.276296,67.035 C269.564426,67.035 268.919293,67.1873876 268.340899,67.4921629 C267.762504,67.7969382 267.31074,68.2147753 266.985607,68.7456742 C266.660474,69.276573 266.497907,69.873015 266.497907,70.535 C266.497907,71.196985 266.660474,71.793427 266.985607,72.3243258 C267.31074,72.8552247 267.762504,73.2730618 268.340899,73.5778371 C268.919293,73.8826124 269.564426,74.035 270.276296,74.035 Z M270.281664,73.335 C269.700624,73.335 269.173838,73.2143103 268.701306,72.972931 C268.228774,72.7315517 267.857749,72.3968391 267.588231,71.9687931 C267.318713,71.5407471 267.183953,71.0628161 267.183953,70.535 C267.183953,70.0071839 267.318713,69.5292529 267.588231,69.1012069 C267.857749,68.6731609 268.228774,68.3384483 268.701306,68.097069 C269.173838,67.8556897 269.700624,67.735 270.281664,67.735 C270.862703,67.735 271.387738,67.8556897 271.85677,68.097069 C272.325802,68.3384483 272.693327,68.6731609 272.959345,69.1012069 C273.225363,69.5292529 273.358372,70.0071839 273.358372,70.535 C273.358372,71.0628161 273.225363,71.5407471 272.959345,71.9687931 C272.693327,72.3968391 272.325802,72.7315517 271.85677,72.972931 C271.387738,73.2143103 270.862703,73.335 270.281664,73.335 Z M276.796814,74.035 L276.796814,68.355 L281.018638,74.035 L281.59093,74.035 L281.59093,67.035 L280.906056,67.035 L280.906056,72.715 L276.67485,67.035 L276.102558,67.035 L276.102558,74.035 L276.796814,74.035 Z M285.029372,74.035 L285.029372,68.355 L289.251197,74.035 L289.823488,74.035 L289.823488,67.035 L289.138615,67.035 L289.138615,72.715 L284.907408,67.035 L284.335116,67.035 L284.335116,74.035 L285.029372,74.035 Z M297.37,74.035 L297.37,73.395 L293.285598,73.395 L293.285598,70.795 L296.797602,70.795 L296.797602,70.165 L293.285598,70.165 L293.285598,67.675 L297.224475,67.675 L297.224475,67.035 L292.567674,67.035 L292.567674,74.035 L297.37,74.035 Z M303.055487,74.035 C303.570847,74.035 304.048217,73.9481554 304.487595,73.7744663 C304.926973,73.6007772 305.298627,73.3500749 305.602558,73.0223596 L305.602558,73.0223596 L305.136751,72.5602809 C304.601569,73.1108427 303.917725,73.3861236 303.085219,73.3861236 C302.536822,73.3861236 302.037979,73.2615918 301.588691,73.0125281 C301.139402,72.7634644 300.787569,72.4226404 300.533192,71.9900562 C300.278815,71.5574719 300.151627,71.0724532 300.151627,70.535 C300.151627,69.9975468 300.278815,69.5125281 300.533192,69.0799438 C300.787569,68.6473596 301.139402,68.3065356 301.588691,68.0574719 C302.037979,67.8084082 302.536822,67.6838764 303.085219,67.6838764 C303.911118,67.6838764 304.594962,67.9558801 305.136751,68.4998876 L305.136751,68.4998876 L305.602558,68.037809 C305.298627,67.7100936 304.928625,67.46103 304.49255,67.290618 C304.056476,67.120206 303.580758,67.035 303.065397,67.035 C302.37825,67.035 301.757174,67.1857491 301.20217,67.4872472 C300.647166,67.7887453 300.212743,68.2065824 299.898902,68.7407584 C299.58506,69.2749345 299.42814,69.873015 299.42814,70.535 C299.42814,71.196985 299.58506,71.7950655 299.898902,72.3292416 C300.212743,72.8634176 300.645514,73.2812547 301.197215,73.5827528 C301.748915,73.8842509 302.368339,74.035 303.055487,74.035 Z M309.391571,74.035 L309.391571,67.675 L311.776977,67.675 L311.776977,67.035 L306.288605,67.035 L306.288605,67.675 L308.67401,67.675 L308.67401,74.035 L309.391571,74.035 Z M314.342791,74.035 L314.342791,67.035 L313.327442,67.035 L313.327442,74.035 L314.342791,74.035 Z M319.671645,74.035 C320.383516,74.035 321.025226,73.8842509 321.596776,73.5827528 C322.168326,73.2812547 322.618378,72.8634176 322.946934,72.3292416 C323.27549,71.7950655 323.439767,71.196985 323.439767,70.535 C323.439767,69.873015 323.27549,69.2749345 322.946934,68.7407584 C322.618378,68.2065824 322.168326,67.7887453 321.596776,67.4872472 C321.025226,67.1857491 320.383516,67.035 319.671645,67.035 C318.959775,67.035 318.314642,67.1873876 317.736247,67.4921629 C317.157853,67.7969382 316.706089,68.2147753 316.380956,68.7456742 C316.055822,69.276573 315.893256,69.873015 315.893256,70.535 C315.893256,71.196985 316.055822,71.793427 316.380956,72.3243258 C316.706089,72.8552247 317.157853,73.2730618 317.736247,73.5778371 C318.314642,73.8826124 318.959775,74.035 319.671645,74.035 Z M319.677012,73.335 C319.095973,73.335 318.569187,73.2143103 318.096655,72.972931 C317.624123,72.7315517 317.253098,72.3968391 316.98358,71.9687931 C316.714061,71.5407471 316.579302,71.0628161 316.579302,70.535 C316.579302,70.0071839 316.714061,69.5292529 316.98358,69.1012069 C317.253098,68.6731609 317.624123,68.3384483 318.096655,68.097069 C318.569187,67.8556897 319.095973,67.735 319.677012,67.735 C320.258052,67.735 320.783087,67.8556897 321.252119,68.097069 C321.721151,68.3384483 322.088676,68.6731609 322.354694,69.1012069 C322.620712,69.5292529 322.753721,70.0071839 322.753721,70.535 C322.753721,71.0628161 322.620712,71.5407471 322.354694,71.9687931 C322.088676,72.3968391 321.721151,72.7315517 321.252119,72.972931 C320.783087,73.2143103 320.258052,73.335 319.677012,73.335 Z M325.506116,74.035 L325.506116,68.355 L329.727941,74.035 L330.300233,74.035 L330.300233,67.035 L329.615359,67.035 L329.615359,72.715 L325.384152,67.035 L324.81186,67.035 L324.81186,74.035 L325.506116,74.035 Z" id="COUNSELLING•COMMUNITY•CONNECTION" fill="#000000" fill-rule="nonzero"></path>
            </g>
        </g>
    </g>
</svg>