<?xml version="1.0" encoding="UTF-8"?>
<svg width="40px" height="30px" viewBox="0 0 40 30" version="1.1" xmlns="http://www.w3.org/2000/svg" xmlns:xlink="http://www.w3.org/1999/xlink">
    <title>92869DDF-AD37-45ED-8A19-2CEAEDA73948</title>
    <g id="Page-1" stroke="none" stroke-width="1" fill="none" fill-rule="evenodd">
        <g id="Counselling" transform="translate(-320.000000, -3559.000000)" fill="#000000" fill-rule="nonzero">
            <g id="Footer" transform="translate(0.000000, 3122.000000)">
                <g id="CONTACT-email" transform="translate(320.000000, 437.000000)">
                    <path d="M35.9230769,0 L3.46153846,0 C2.92869231,0 2.42984615,0.131 1.97853846,0.346923077 L19.6153846,17.9837692 L23.5683846,14.1847692 C23.5683846,14.1847692 23.5686923,14.1843846 23.5687692,14.1842308 C23.5688462,14.1840769 23.5691538,14.1839231 23.5691538,14.1839231 L37.4066154,0.347230769 C36.9552308,0.131153846 36.4560769,0 35.9230769,0 Z" id="Path"></path>
                    <path d="M39.0381538,1.97907692 L26.0163846,15.0001538 L39.0376923,28.0214615 C39.2536154,27.5701538 39.3846154,27.0713077 39.3846154,26.5384615 L39.3846154,3.46153846 C39.3846154,2.929 39.2539231,2.43023077 39.0381538,1.97907692 Z" id="Path"></path>
                    <path d="M0.346923077,1.97853846 C0.131,2.42984615 0,2.92869231 0,3.46153846 L0,26.5384615 C0,27.071 0.130846154,27.5699231 0.346615385,28.0210769 L13.3683846,15 L0.346923077,1.97853846 Z" id="Path"></path>
                    <path d="M24.3847692,16.6317692 L20.4312308,20.4312308 C20.2058462,20.6566154 19.9106154,20.7693077 19.6154615,20.7693077 C19.3203077,20.7693077 19.025,20.6566154 18.7996923,20.4312308 L15,16.6316154 L1.978,29.6527692 C2.42938462,29.8688462 2.92853846,30 3.46153846,30 L35.9230769,30 C36.4559231,30 36.9547692,29.869 37.4060769,29.6530769 L24.3847692,16.6317692 Z" id="Path"></path>
                </g>
            </g>
        </g>
    </g>
</svg>